<svg xmlns="http://www.w3.org/2000/svg" viewBox="0 0 200 200">
  <defs>
    <linearGradient id="audGrad" x1="0%" y1="0%" x2="100%" y2="100%">
      <stop offset="0%" style="stop-color:#4facfe"/>
      <stop offset="100%" style="stop-color:#00f2fe"/>
    </linearGradient>
  </defs>
  <rect width="200" height="200" rx="24" fill="#1a1a2e"/>
  <rect x="45" y="60" width="8" height="80" rx="4" fill="url(#audGrad)" opacity="0.4"/>
  <rect x="45" y="80" width="8" height="60" rx="4" fill="url(#audGrad)"/>
  <rect x="65" y="50" width="8" height="100" rx="4" fill="url(#audGrad)" opacity="0.4"/>
  <rect x="65" y="70" width="8" height="80" rx="4" fill="url(#audGrad)"/>
  <rect x="85" y="40" width="8" height="120" rx="4" fill="url(#audGrad)" opacity="0.4"/>
  <rect x="85" y="60" width="8" height="100" rx="4" fill="url(#audGrad)"/>
  <rect x="105" y="50" width="8" height="100" rx="4" fill="url(#audGrad)" opacity="0.4"/>
  <rect x="105" y="75" width="8" height="75" rx="4" fill="url(#audGrad)"/>
  <rect x="125" y="60" width="8" height="80" rx="4" fill="url(#audGrad)" opacity="0.4"/>
  <rect x="125" y="85" width="8" height="55" rx="4" fill="url(#audGrad)"/>
  <rect x="145" y="70" width="8" height="60" rx="4" fill="url(#audGrad)" opacity="0.4"/>
  <rect x="145" y="90" width="8" height="40" rx="4" fill="url(#audGrad)"/>
</svg>